<svg version="1.1" xmlns="http://www.w3.org/2000/svg" viewBox="0 0 776.0258402374104 591.80078125" width="776.0258402374104" height="591.80078125">
  <!-- svg-source:excalidraw -->
  <!-- payload-type:application/vnd.excalidraw+json --><!-- payload-version:2 --><!-- payload-start -->eyJ2ZXJzaW9uIjoiMSIsImVuY29kaW5nIjoiYnN0cmluZyIsImNvbXByZXNzZWQiOnRydWUsImVuY29kZWQiOiJ4nO1cXGtT28hcdTAwMTL9nl/hYr8uk3k/turWLVx1MDAxYshCXGKPYFiy7G6lXHUwMDE0W7ZcdTAwMDWy5MgyXHUwMDE4tvLfb0s21sOyLYOcdbauqOIhyVJr1Of06Z5cdTAwMWX+flOr7YSPXHUwMDAze+eX2o49blmu01x1MDAwZayHnZ+j/fd2MHR8XHUwMDBmXHUwMDBl0fjvoT9cblrxmb0wXHUwMDFjXGZ/efu2b1x1MDAwNXd2OHCtlo3uneHIcofhqO34qOX33zqh3Vx1MDAxZv43+n5q9e3/XGb8fjtcZlByk1277YR+MLmX7dp921x1MDAwYodw9T/g71rt7/h7yrrAboWW13Xt+Fx1MDAwM/GhxEBGSH7vqe/FxipDiFBSytlcdM5wXHUwMDFmblx1MDAxN9ptONpcdTAwMDGT7eRItGvn8qJxNfi13bXc3Ub95HDcP3pHR8ldO47rNsNHN7Zq6MPDJMeGYeDf2ddOO+w9XHUwMDBmW2r/ok9cdTAwMDX+qNvz7GH09Mlz+Fx1MDAwM6vlhI/RPoxneydD8Est2TOOnt9gRJRQmlAxO1x1MDAxMH+UUUSwYUrkbNnzXVx1MDAxOHuw5SdiR1+JNV+s1l1cdTAwMTdM8tqzc8LA8oZcdTAwMDMrgDeUnPcwfUqm4Fx1MDAxNlxc8/Q9erbT7YWx6Vx1MDAxNFx1MDAxOcKxTNk1tOOhJ5hJeDIq9OxIdNvBUTv2gr+SXHUwMDAxXHUwMDBmwH+Ooo94I9dNj5rXno7as7ck/sKme74lz1x1MDAxNZ1/kPeztK+lfODqQV9cdTAwMWY1+85grzM+cu0za/j1JHn2jGNaQeA/7MyOfPu5+LrPp4f2OHehyVx1MDAxZO3Whyvfrp/f3P3um8897/rm8WR39WUnXHUwMDFm7l01fmu9t64/ieP+xXldOuxiN3iVuZPrntqHvlx1MDAxM7zrffxwa5pcdTAwMWZcdTAwMWG++5VcdTAwMWM8VnFdfHVyx8TxvmlcdTAwMDB3NC7O5PHTZbnrTn9L3GM0aFtcdTAwMTMwXHUwMDEzxZjiXHUwMDFjXHUwMDFiqZWZXHUwMDFkd1x1MDAxZO8u7zuu37pL8P8mZfBcdTAwMWPvZN5XinIkzu98Zlx1MDAxY1wijMZcdTAwMTJrxktTTvHL32rKXHUwMDExRCGmMOZaUGq4Se5cdTAwMWN/Xlx1MDAxMYSlzFx1MDAwMb9i5iFgglx1MDAxMsZgalx1MDAwNCeYiITjZ1x1MDAwNFTAO5xKauBzXHUwMDE18E7mwFx1MDAxY8Es9lHGXHUwMDE4mKzW8NHEKt9cdTAwMGKbzlP0QijO7H1n9Vx1MDAxZPcx80Jj54Vh3PM9XHUwMDBm4metPlx1MDAxOOxkXHUwMDBl1l2nXHUwMDFiefNOXHUwMDBijLaDjKOHXHUwMDBlhOrZXHR9p91OXHUwMDA331x1MDAxNtzRcjw7OCpcdTAwMTM0/cDpOp7lXi4zXGJGwT6cRVx1MDAwZZR6dV+soVx1MDAxZFx1MDAxZI3266VwndBFXHUwMDAxXlx04zK/e4ZYXCIxXHUwMDE2mJbXXGLL48NWXHUwMDAyljODqORcdTAwMTS+pGKSkaxSoJwgMlxy1TjaZM6yXG5xK1x1MDAxMaBWciW41kZIllxmwlxmt0wwRCmVQlJuoi0h0ymOQfPBRUTykFx1MDAxNapcdTAwMDf6UvWwKsr/dvO1Tt65j+OB6aiuczV6qHf9daLbK5hjXHUwMDE4WkHYcLy243WzTz1V32WQXHUwMDFjjbM1iOJcdTAwMWZcIlJFkXbiLUKlzuj4rVE0SFx1MDAxOClOXGLBXFxIeIlcdTAwMWNk6Ny42l57tUlup9e98Fx1MDAwNtr+9eun3afj91x1MDAwN4PAo/MmMSRcdTAwMDTOaOCULbtcdTAwMThcdFxiVVx1MDAxYc5cdTAwMDDhXHRG03ljXFxrXHUwMDE47vn9vlx1MDAxM8KQn/uOXHUwMDE35oc2XHUwMDFlw3rEMT3bmnMqeJj0sTxcdTAwMTlccqIrZp3nj5SL4LS/4Nnvf/1cXHj2Ylx1MDAxMEXbPHyS671J/1xcV/akSDlHolx1MDAxNGtccmqAifKyp1x1MDAxOFxyW82iTGBkQEFgcFwiprXCydM+xolcdTAwMTjkO5RpmsnEKidQblx1MDAxMCdGR1wi0yzIvFLEOCVMQ1xynE5SmfD31z2UY5qi+03rnlx1MDAwYlx1MDAxYphcdTAwMDVM/tzq2a27P71ccomfXHUwMDE1aiAvflx1MDAxNltVSlx1MDAwMXG2XHUwMDE0uUtcdTAwMGIlQpv83plcYtKYKWXKo3c5K28nejUkLVx1MDAxNLN8mURcdTAwMTiFgEuzUKq8UFx1MDAwMtTBXGZcdTAwMTeZu6cqJVx1MDAwMuVcdTAwMGY+ZyxKKipccqQ4m9A6L66UrNI6h/LkXc+5aF7R95e4Z536l1x1MDAxN4dcdTAwMWbLVlxiqi/ATDPt/UMqnm4uRrrRs7R1vTdcdTAwMWFcdTAwMGad/1c0vEmCsIhcdTAwMWIgbnAlXHUwMDA1p6XJofjlbzU5XGLMkKJKMiyJoIxnIztEe7RReoiqXHUwMDE5Qlx1MDAxOdBymJhcdTAwMDUkUcBcckJcdTAwMDF5KVJFXHUwMDFl9PKoXHUwMDFl6Vx1MDAxZL6Gf74uql/7wZ1cdTAwMWREtYPhhlx1MDAwMvqK0JZcdTAwMGbohVx1MDAwNlVRzVhcdTAwMWHLXHRli/DKXHUwMDE1XHUwMDE1IEXLw9U71uO9p0bvg9i7vmz071x1MDAwN5/f33zebrhcdTAwMTLBUVx1MDAxZSiTKVx1MDAwZlx1MDAwNWknJXqTWKVcdTAwMWEpxYqVty5cdTAwMDCpXHUwMDE0TGGxZVNcdTAwMWSrXHUwMDAy+Nn+g3/1+Uvz8KM5qau9d08n+vKgbEA8P7tcdTAwMWOeysePnlx1MDAxZV/un/Hz+slJp2RcdTAwMDBfXHUwMDE5XHUwMDEwXHUwMDE5JVxmSG/TXHUwMDAxUS3MdZmUnHGpy1x1MDAxN1xmi8dyu1x1MDAwMSZcdGKcYlxiLmxcIpqzOON08zgjXHUwMDFjcWVcZjGcMWFcbuGmXG70ssZRdpyqRPxcdTAwMDMxcV1cdTAwMTd9XUxsXHUwMDA0vtVuWcPw7Z9eXHUwMDEzTFx1MDAwN2et/entXHUwMDA1Nli1oSC5XCJm5INkYuGzfXnrSkVM+cL6f8pcdTAwMTnyiS83jGNqVMLOq9C8nNy2XHUwMDEyzVTzuWn6yUydQVx1MDAxYq1VYZC1oG0zPDFcdTAwMDMvZMRYZ4E9XHUwMDA1McVGYcg6dDJE37fAv1x1MDAxMWyXrMEvh1YtU9XGlEDOYoRcdTAwMTFcdTAwMWNzLsCZU+dNXG7jXHUwMDA0kUmpfu6pM+X37Fx1MDAwM/xItfBcdTAwMDJcdTAwMWaLtt3EvZJLvEn/XFybRrTO75zRiITkjXOWysRW0chtXHUwMDBiu81xr3nvdI9v63z3io1vb7ecRphBskB1M6CRjU/3XHUwMDBihHNcdTAwMTM8qVx0Q6RkjmWe697MXHUwMDE4rYmpQFxyVE4kVGCzTmFnXVwiab//0jW3e7+fXHUwMDFk1D3VoTe617aCXCJcIlx1MDAwMalHgUMwloZwyalOTSdNWUQhXHUwMDEzq71/K4lcdTAwMTS4V7TtJp61JoksyitcYl5IXCJaM21cdTAwMTTH5Vx1MDAxM4vlb3g7OYQzRFx1MDAxOJ1rVoSMXG6pjeZcdTAwMTNGXCJcdTAwMWSlXHUwMDEzjDFcdTAwMWO/6XlcdTAwMWUpKLFJXHUwMDA2fsFNXHUwMDE12fvydGLmX1x1MDAwNfn08liR8btcdTAwMTfk0y/moVx1MDAxNyUr945V+ziyR4syXHUwMDEz1+6ES/KS0Fx1MDAxZixKSjIm5zOQgttutOVI8IVcdTAwMDU6JVx1MDAxNCecrYHz5Vx1MDAxM1x1MDAxN1uJcyEpjOh8U7LQatNNyYSixVx1MDAxNVx1MDAwMybgqMRFWYdkXHUwMDA0g5CrYo78O3ZcdTAwMTV9be6f3O5cdTAwMGLddW+HnbuDp9tWXHUwMDAz36/XVUS4SEnb6oXIylx1MDAxNp6kZ1xiY1xyr0FpTeFVaKWLXHUwMDEyXHUwMDFhjLRcdTAwMTD8X5zS7EZ985OkLSNGXGLmiFx0XHUwMDAy0Fx1MDAxMisvUVx1MDAwMIJ4f8r/q1I0XHUwMDBil19cdTAwMDD2wVjCSPm+gmJv3mqmXHUwMDAzT0RcdTAwMDa0I5PGmChcdTAwMTPN8Fx1MDAxZMdcdTAwMDRxnl9cdTAwMDVReXaEkYBMZ1x1MDAxMsuVLNlcZlxytkLKKv7ZUqlcdTAwMDBrk4HftPo4qln9Wlx1MDAwMFx1MDAxOH5cXCA/XltcdTAwMThdXHUwMDExqvOypMiezbZC68VrXHUwMDE3iNEgw+VcdTAwMWFTh8vXnmwlXFylVIhcdTAwMTOqINfSimqWXFwl7oRmkOma5Vx1MDAxM1x1MDAxYlx1MDAxZKxbXHUwMDE4v1x1MDAxY62UI7VwXHUwMDAykUmGdL6FcFrLgDitqKpi7cJ31Cen4Fx1MDAxMVx1MDAwN+3P/NKVQ3N63CTWrW+v1Vx1MDAwMVx1MDAxM/ulSMPje3c9p/uIMWFcdTAwMDZjXHUwMDAxblx1MDAwNFhJXHUwMDFhc2byXHUwMDA0Yve/WZpcdTAwMTCGJDNcZlx1MDAxM1x1MDAxZaNcdTAwMDebTOsx0VxmYU7TI7Ck5oJcYtNwNpVUXHUwMDExaZLCSLSlcFCRTlnc4aRcdTAwMTSmXFzjNdZsXHUwMDE1O/VW81x1MDAxZUh8JDm4rKRYcyOzvMejKvpEVG+M9+BcdTAwMWSjaH2clNNcdTAwMTJMXHUwMDE5kcJcdTAwMDQ3Rlx1MDAwMVxy/HNcdTAwMWHlXHUwMDE1XHUwMDA09FwijdJcdTAwMDRA12Yzpptqc1pcdTAwMTG680JloVFcdTAwMWJVKzQ17Fx1MDAwNWpFSE1M+SmX5Stat1x1MDAxMrVcdTAwMTDvXHUwMDExxFx1MDAxYlx1MDAxMMlcdTAwMWGAQGmCmUnrskE4zlx1MDAwNzeXWjCDtOGGXHUwMDAzR1x1MDAwYpAsXHUwMDA1oI2oXHUwMDFhMvXCdd5cdTAwMDJruIIgP5Zm6Y3bv1ufXHUwMDFh9V/Vl7F7en5DPlx1MDAxZTQu112pJVlcdTAwMTU1lXykr1bNcElcdFx1MDAwNFx1MDAwNvAwXHUwMDE5yeH02qlpsWVuiH8ktVx1MDAxMv1cdTAwMDdcdTAwMDROwDGllliQXFw1RWOkXHUwMDA0i/12peyBnEFzRqYoVFrkqipcdFx1MDAwNCpSK2RhmiZcItElmSrPe8XuvN28J1xmUowyzUBlYsjWcmpFQJaWr+JW3ryCXHUwMDExIMNQjPlk6UZcdTAwMTm9QiC1o5qKKmacX7HCnEj1/Xqym9a9XfvgdzclVVbE7TmpMm/OZkWKWYhVKVx1MDAxNMFcdTAwMWOb8t1ly9eSbCdWXHUwMDAxKFkoTrRcdEdzTVx1MDAxOVx1MDAxNWdcdTAwMTRSLaukXGKNJsXQXHUwMDAylEYrqYFf+I8112Odd+yzh+a9XHUwMDA1bHT34dMo2PWOm+vVUihsm2w6WWOuR0quXGZWXFxKQyC0zjedMMT45P3NXHJo5UqIaVwiJVx1MDAwMW8lNOqlw0WNdNxkJk5+TE0kXGKSuVxuZ7TtUspcdTAwMTEluYmhXHUwMDA1aohIVNQrk1x1MDAwMlxcVSpo4b/tUEzH81vlmbVcdTAwMTg8W82sMmpL4tEyf0x11IafU0FcZoFuz810V161XHUwMDExXHUwMDFjxVx1MDAxZPVy2odfqmxDmVJY4iryvpeXbV7MdS/rwrfCVq9cdTAwMDY0MIi8cFNSaLk8mOu7X2DTWnrozZRcYnaswaBcdTAwMTlGXfvPlFx1MDAwYi/VaU9cdTAwMDcqXHUwMDE51517x35ozLvZT514i+JVzFx1MDAwM1x1MDAxMeTsOIJ+e/Ptf86QsVxcIn0=<!-- payload-end -->
  <defs>
    <style class="style-fonts">
      @font-face {
        font-family: "Virgil";
        src: url("https://file%2B.vscode-resource.vscode-cdn.net/Users/rumsan/.vscode/extensions/pomdtr.excalidraw-editor-3.7.4/public//dist/excalidraw-assets/Virgil.woff2");
      }
      @font-face {
        font-family: "Cascadia";
        src: url("https://file%2B.vscode-resource.vscode-cdn.net/Users/rumsan/.vscode/extensions/pomdtr.excalidraw-editor-3.7.4/public//dist/excalidraw-assets/Cascadia.woff2");
      }
      @font-face {
        font-family: "Assistant";
        src: url("https://file%2B.vscode-resource.vscode-cdn.net/Users/rumsan/.vscode/extensions/pomdtr.excalidraw-editor-3.7.4/public//dist/excalidraw-assets/Assistant-Regular.woff2");
      }
    </style>
    
  </defs>
  <rect x="0" y="0" width="776.0258402374104" height="591.80078125" fill="#ffffff"></rect><g stroke-linecap="round" transform="translate(245.98046875 10) rotate(0 186.07421875 51.45703125)"><path d="M25.73 0 C116.17 -0.52, 203.78 -1.02, 346.42 0 M25.73 0 C130 -2.16, 233.98 -1.27, 346.42 0 M346.42 0 C362.79 0, 372.35 9.1, 372.15 25.73 M346.42 0 C362.45 -0.99, 369.87 7.7, 372.15 25.73 M372.15 25.73 C374.3 42.15, 373.58 55.95, 372.15 77.19 M372.15 25.73 C372.9 39.93, 372.61 53.14, 372.15 77.19 M372.15 77.19 C373.83 92.62, 363.97 102.25, 346.42 102.91 M372.15 77.19 C374.31 95.91, 364.35 104.47, 346.42 102.91 M346.42 102.91 C235.96 104, 126.77 102.08, 25.73 102.91 M346.42 102.91 C254.46 105.54, 162.83 104.28, 25.73 102.91 M25.73 102.91 C7.22 102.82, -0.34 94.93, 0 77.19 M25.73 102.91 C6.62 104.26, 0.49 93.3, 0 77.19 M0 77.19 C-0.05 63.15, 1.71 52.92, 0 25.73 M0 77.19 C0.16 65.33, 0.09 53.35, 0 25.73 M0 25.73 C0.83 7.88, 10.13 1.23, 25.73 0 M0 25.73 C-1.14 10.44, 10.33 1.49, 25.73 0" stroke="#1e1e1e" stroke-width="2" fill="none"></path></g><g transform="translate(373.1747360229492 48.95703125) rotate(0 58.87995147705078 12.5)"><text x="58.87995147705078" y="0" font-family="Virgil, Segoe UI Emoji" font-size="20px" fill="#1e1e1e" text-anchor="middle" style="white-space: pre;" direction="ltr" dominant-baseline="text-before-edge">Connect App</text></g><g mask="url(#mask-Uw8WISmipCfxIleOasqMt)" stroke-linecap="round"><g transform="translate(295.06892996736315 119.08203125000006) rotate(0 8.299823774447816 176.61132812499997)"><path d="M0.9 0.92 C3.8 59.59, 14.47 293.75, 16.9 352.39 M-0.09 0.35 C2.72 59.13, 13.12 294.58, 16.11 353.49" stroke="#1e1e1e" stroke-width="2" fill="none"></path></g><g transform="translate(295.06892996736315 119.08203125000006) rotate(0 8.299823774447816 176.61132812499997)"><path d="M4.54 325.81 C9.16 333.45, 9.26 338.35, 16.11 353.49 M4.54 325.81 C7.78 333.65, 10.62 339.89, 16.11 353.49" stroke="#1e1e1e" stroke-width="2" fill="none"></path></g><g transform="translate(295.06892996736315 119.08203125000006) rotate(0 8.299823774447816 176.61132812499997)"><path d="M25.04 324.85 C24.31 332.89, 19.07 338.04, 16.11 353.49 M25.04 324.85 C22.93 332.78, 20.42 339.27, 16.11 353.49" stroke="#1e1e1e" stroke-width="2" fill="none"></path></g></g><mask id="mask-Uw8WISmipCfxIleOasqMt"><rect x="0" y="0" fill="#fff" width="411.6685775162588" height="572.3046875"></rect><rect x="228.65882332188903" y="270.693359375" fill="#000" width="149.41986083984375" height="50" opacity="1"></rect></mask><g transform="translate(228.6588233218891 270.693359375) rotate(0 74.81800646898802 25.30894422044051)"><text x="74.70993041992188" y="0" font-family="Virgil, Segoe UI Emoji" font-size="20px" fill="#1e1e1e" text-anchor="middle" style="white-space: pre;" direction="ltr" dominant-baseline="text-before-edge">Rediness_check</text><text x="74.70993041992188" y="25" font-family="Virgil, Segoe UI Emoji" font-size="20px" fill="#1e1e1e" text-anchor="middle" style="white-space: pre;" direction="ltr" dominant-baseline="text-before-edge"></text></g><g stroke-linecap="round" transform="translate(243.125 475.85546875) rotate(0 175.197265625 52.97265625)"><path d="M26.49 0 C120.88 0.03, 211.98 -0.36, 323.91 0 M26.49 0 C119.95 -1.68, 211.91 -2.35, 323.91 0 M323.91 0 C341.23 1.05, 348.9 10.34, 350.39 26.49 M323.91 0 C341.89 -0.63, 350.63 7.35, 350.39 26.49 M350.39 26.49 C351.52 45.18, 351.88 61.5, 350.39 79.46 M350.39 26.49 C349.57 45.88, 349.75 67.22, 350.39 79.46 M350.39 79.46 C349.25 95.59, 342.55 104.51, 323.91 105.95 M350.39 79.46 C349.95 98.84, 343.76 107.07, 323.91 105.95 M323.91 105.95 C237.08 102.97, 150.19 104.22, 26.49 105.95 M323.91 105.95 C234.03 105.71, 143.6 106.22, 26.49 105.95 M26.49 105.95 C8.07 105.56, -1.54 96.71, 0 79.46 M26.49 105.95 C7.54 104.3, -1.39 95.95, 0 79.46 M0 79.46 C0.69 66.03, -1.43 54.74, 0 26.49 M0 79.46 C0.37 64.86, -0.74 51.94, 0 26.49 M0 26.49 C1.62 7.75, 7.09 -0.19, 26.49 0 M0 26.49 C-1.87 6.84, 7.02 0.39, 26.49 0" stroke="#1e1e1e" stroke-width="2" fill="none"></path></g><g transform="translate(359.5323181152344 516.328125) rotate(0 58.789947509765625 12.5)"><text x="58.789947509765625" y="0" font-family="Virgil, Segoe UI Emoji" font-size="20px" fill="#1e1e1e" text-anchor="middle" style="white-space: pre;" direction="ltr" dominant-baseline="text-before-edge">Worker Apps</text></g><g stroke-linecap="round" transform="translate(10 15.6328125) rotate(0 64.38671875 42.5)"><path d="M21.25 0 C43.17 -1.19, 66.5 2.58, 107.52 0 M21.25 0 C47.35 -0.29, 74.79 -0.52, 107.52 0 M107.52 0 C122.44 -1.73, 127.43 8.92, 128.77 21.25 M107.52 0 C122.74 1.7, 129.41 8.82, 128.77 21.25 M128.77 21.25 C126.54 39.57, 130.05 56.08, 128.77 63.75 M128.77 21.25 C129.93 32.81, 129.71 46.4, 128.77 63.75 M128.77 63.75 C127.91 77.16, 122.28 84.93, 107.52 85 M128.77 63.75 C127.59 79.41, 123.53 83.42, 107.52 85 M107.52 85 C82.6 86.08, 57.53 87.05, 21.25 85 M107.52 85 C77.94 85.88, 49.07 85.54, 21.25 85 M21.25 85 C7.27 84.4, 1.68 79.27, 0 63.75 M21.25 85 C6.65 85.85, -1.8 76.68, 0 63.75 M0 63.75 C0.77 55.15, -0.64 43.84, 0 21.25 M0 63.75 C0 53.73, 0.69 44.59, 0 21.25 M0 21.25 C-0.05 7.39, 7.21 1.23, 21.25 0 M0 21.25 C-1.36 5.77, 7.55 -0.26, 21.25 0" stroke="#1e1e1e" stroke-width="2" fill="none"></path></g><g transform="translate(17.146759033203125 20.6328125) rotate(0 57.239959716796875 37.5)"><text x="57.239959716796875" y="0" font-family="Virgil, Segoe UI Emoji" font-size="20px" fill="#1e1e1e" text-anchor="middle" style="white-space: pre;" direction="ltr" dominant-baseline="text-before-edge">Broadcast/</text><text x="57.239959716796875" y="25" font-family="Virgil, Segoe UI Emoji" font-size="20px" fill="#1e1e1e" text-anchor="middle" style="white-space: pre;" direction="ltr" dominant-baseline="text-before-edge">Session </text><text x="57.239959716796875" y="50" font-family="Virgil, Segoe UI Emoji" font-size="20px" fill="#1e1e1e" text-anchor="middle" style="white-space: pre;" direction="ltr" dominant-baseline="text-before-edge">Create</text></g><g stroke-linecap="round"><g transform="translate(139.953125 57.015625) rotate(0 53.755859375 -0.154296875)"><path d="M-0.96 0.6 C16.92 0.47, 88.73 -0.91, 106.93 -1.16 M0.74 -0.12 C18.44 -0.09, 87.82 -0.12, 105.68 -0.07" stroke="#1e1e1e" stroke-width="2" fill="none"></path></g><g transform="translate(139.953125 57.015625) rotate(0 53.755859375 -0.154296875)"><path d="M77.48 10.16 C86.2 6.64, 91.46 6.07, 105.68 -0.07 M77.48 10.16 C85.03 8.29, 91.03 4.41, 105.68 -0.07" stroke="#1e1e1e" stroke-width="2" fill="none"></path></g><g transform="translate(139.953125 57.015625) rotate(0 53.755859375 -0.154296875)"><path d="M77.5 -10.36 C86.15 -8.29, 91.41 -3.27, 105.68 -0.07 M77.5 -10.36 C85.17 -7.04, 91.16 -5.72, 105.68 -0.07" stroke="#1e1e1e" stroke-width="2" fill="none"></path></g></g><mask></mask><g stroke-linecap="round"><g transform="translate(95.5 257.53125) rotate(0 57.525390625 -1.880859375)"><path d="M0.68 -1.2 C19.78 -2.09, 96.56 -4.1, 115.79 -4.58 M-0.42 0.79 C18.49 -0.04, 95.85 -2.85, 115.23 -3.47" stroke="#1e1e1e" stroke-width="2" fill="none"></path></g><g transform="translate(95.5 257.53125) rotate(0 57.525390625 -1.880859375)"><path d="M87.41 7.76 C96.43 4.35, 108.17 0.35, 115.23 -3.47 M87.41 7.76 C94.31 4.54, 102.02 2.18, 115.23 -3.47" stroke="#1e1e1e" stroke-width="2" fill="none"></path></g><g transform="translate(95.5 257.53125) rotate(0 57.525390625 -1.880859375)"><path d="M86.7 -12.75 C96.14 -7.98, 108.16 -3.8, 115.23 -3.47 M86.7 -12.75 C93.6 -10.36, 101.51 -7.1, 115.23 -3.47" stroke="#1e1e1e" stroke-width="2" fill="none"></path></g></g><mask></mask><g transform="translate(98.9375 224.609375) rotate(0 48.43995666503906 12.5)"><text x="0" y="0" font-family="Virgil, Segoe UI Emoji" font-size="20px" fill="#1e1e1e" text-anchor="start" style="white-space: pre;" direction="ltr" dominant-baseline="text-before-edge">via Queue</text></g><g mask="url(#mask-eDH25zZRu8Bha8aWCuxsi)" stroke-linecap="round"><g transform="translate(418.0625 465) rotate(0 -6.216796875 -176.23046875)"><path d="M-0.76 -0.97 C-1.34 -18.64, -0.47 -46.93, -2.36 -105.44 C-4.25 -163.94, -10.57 -310.85, -12.08 -351.99 M1.04 1.14 C0.26 -16.47, -0.73 -45.27, -3.02 -104.47 C-5.3 -163.68, -11.39 -312.99, -12.66 -354.08" stroke="#1e1e1e" stroke-width="2" fill="none"></path></g><g transform="translate(418.0625 465) rotate(0 -6.216796875 -176.23046875)"><path d="M-1.38 -326.28 C-7.54 -336.29, -12.14 -347.5, -12.66 -354.08 M-1.38 -326.28 C-4.48 -335.27, -10 -344.95, -12.66 -354.08" stroke="#1e1e1e" stroke-width="2" fill="none"></path></g><g transform="translate(418.0625 465) rotate(0 -6.216796875 -176.23046875)"><path d="M-21.89 -325.54 C-20.03 -335.71, -16.62 -347.21, -12.66 -354.08 M-21.89 -325.54 C-18.03 -334.81, -16.6 -344.74, -12.66 -354.08" stroke="#1e1e1e" stroke-width="2" fill="none"></path></g></g><mask id="mask-eDH25zZRu8Bha8aWCuxsi"><rect x="0" y="0" fill="#fff" width="530.49609375" height="917.4609375"></rect><rect x="359.8745651245117" y="348.1484375" fill="#000" width="110.53993225097656" height="25" opacity="1"></rect></mask><g transform="translate(359.8745651245117 348.1484375) rotate(0 52.377728045647984 -59.62083634695966)"><text x="55.26996612548828" y="0" font-family="Virgil, Segoe UI Emoji" font-size="20px" fill="#1e1e1e" text-anchor="middle" style="white-space: pre;" direction="ltr" dominant-baseline="text-before-edge">I am ready</text></g><g mask="url(#mask-hUBVcJaWX5KmRPA6i3R-r)" stroke-linecap="round"><g transform="translate(523.2174264872831 115.8828125) rotate(0 -1.2506296122830918 181.94140625)"><path d="M-1.08 0 C-3.35 30.59, -15.1 122.75, -13.11 183.46 C-11.12 244.17, 6.99 334.13, 10.85 364.25 M0.55 -1.04 C-1.88 29.18, -15.34 121.03, -13.78 181.56 C-12.21 242.08, 6.02 331.45, 9.94 362.1" stroke="#f08c00" stroke-width="2" fill="none"></path></g><g transform="translate(523.2174264872831 115.8828125) rotate(0 -1.2506296122830918 181.94140625)"><path d="M-4.64 335.88 C0.33 345.85, 6 353.46, 9.94 362.1 M-4.64 335.88 C0.05 344.22, 3.86 352.53, 9.94 362.1" stroke="#f08c00" stroke-width="2" fill="none"></path></g><g transform="translate(523.2174264872831 115.8828125) rotate(0 -1.2506296122830918 181.94140625)"><path d="M15.63 332.64 C13.67 343.54, 12.42 352.25, 9.94 362.1 M15.63 332.64 C13.58 342.11, 10.7 351.49, 9.94 362.1" stroke="#f08c00" stroke-width="2" fill="none"></path></g></g><mask id="mask-hUBVcJaWX5KmRPA6i3R-r"><rect x="0" y="0" fill="#fff" width="647.9947702372831" height="579.765625"></rect><rect x="424.9981918334961" y="286.42578125" fill="#000" width="169.1598663330078" height="25" opacity="1"></rect></mask><g transform="translate(424.9981918334961 286.42578125) rotate(0 96.69351697582243 11.059480841276212)"><text x="84.5799331665039" y="0" font-family="Virgil, Segoe UI Emoji" font-size="20px" fill="#f08c00" text-anchor="middle" style="white-space: pre;" direction="ltr" dominant-baseline="text-before-edge">Send Broadcasts</text></g><g mask="url(#mask-NeHoirFhQLj9SLBolq1Ey)" stroke-linecap="round"><g transform="translate(583.1952533549228 476.90625) rotate(0 62.4631555027961 -181.89453125)"><path d="M0.91 0.5 C22.83 -29.43, 133.71 -119.96, 132.41 -180.58 C131.1 -241.2, 16.41 -332.59, -6.92 -363.2 M-0.07 -0.28 C21.62 -29.91, 132.68 -118.12, 131.46 -178.95 C130.24 -239.77, 15.74 -334.49, -7.39 -365.23" stroke="#1e1e1e" stroke-width="2" fill="none"></path></g><g transform="translate(583.1952533549228 476.90625) rotate(0 62.4631555027961 -181.89453125)"><path d="M19.42 -351.79 C10.37 -356.6, -0.17 -360.67, -7.39 -365.23 M19.42 -351.79 C10.84 -356.77, -0.29 -361.72, -7.39 -365.23" stroke="#1e1e1e" stroke-width="2" fill="none"></path></g><g transform="translate(583.1952533549228 476.90625) rotate(0 62.4631555027961 -181.89453125)"><path d="M4.51 -337.69 C1.13 -347.87, -3.85 -357.2, -7.39 -365.23 M4.51 -337.69 C1.14 -347.54, -4.78 -357.41, -7.39 -365.23" stroke="#1e1e1e" stroke-width="2" fill="none"></path></g></g><mask id="mask-NeHoirFhQLj9SLBolq1Ey"><rect x="0" y="0" fill="#fff" width="823.0901960703605" height="940.6953125"></rect><rect x="665.185920193465" y="283.65234375" fill="#000" width="100.83992004394531" height="25" opacity="1"></rect></mask><g transform="translate(665.1859201934651 283.65234375) rotate(0 -19.479194447015914 10.889876112756298)"><text x="50.419960021972656" y="0" font-family="Virgil, Segoe UI Emoji" font-size="20px" fill="#1e1e1e" text-anchor="middle" style="white-space: pre;" direction="ltr" dominant-baseline="text-before-edge">Save Logs</text></g><g mask="url(#mask-N0UMk35KD9BaceBRO6KzT)" stroke-linecap="round"><g transform="translate(555.8984375 472.5078125) rotate(0 17.810546875 -179.048828125)"><path d="M-0.59 0.8 C7.78 -36.63, 53.4 -165.56, 51.02 -225.21 C48.64 -284.87, -3.69 -334.98, -14.88 -357.13 M1.31 0.18 C9.99 -37.08, 56.1 -164.35, 53.37 -224.2 C50.65 -284.06, -3.48 -336.83, -15.02 -358.97" stroke="#f08c00" stroke-width="2" fill="none"></path></g><g transform="translate(555.8984375 472.5078125) rotate(0 17.810546875 -179.048828125)"><path d="M9.58 -341.79 C1.94 -349.37, -10.13 -352.58, -15.02 -358.97 M9.58 -341.79 C0.48 -348.6, -8.23 -355.13, -15.02 -358.97" stroke="#f08c00" stroke-width="2" fill="none"></path></g><g transform="translate(555.8984375 472.5078125) rotate(0 17.810546875 -179.048828125)"><path d="M-7.22 -330 C-8.61 -341.84, -14.49 -349.39, -15.02 -358.97 M-7.22 -330 C-9.92 -341.29, -12.25 -352.3, -15.02 -358.97" stroke="#f08c00" stroke-width="2" fill="none"></path></g></g><mask id="mask-N0UMk35KD9BaceBRO6KzT"><rect x="0" y="0" fill="#fff" width="723.67578125" height="930.60546875"></rect><rect x="530.5877227783203" y="235.796875" fill="#000" width="154.01986694335938" height="25" opacity="1"></rect></mask><g transform="translate(530.5877227783203 235.796875) rotate(0 44.54521287852657 57.62676743727641)"><text x="77.00993347167969" y="0" font-family="Virgil, Segoe UI Emoji" font-size="20px" fill="#f08c00" text-anchor="middle" style="white-space: pre;" direction="ltr" dominant-baseline="text-before-edge">Batch Complete</text></g></svg>